<svg xmlns="http://www.w3.org/2000/svg" width="400" height="400" viewBox="0 0 400 400">
  <defs>
    <path id="xs" d="M0,0 C4,-3 7,-1.5 8,0 C7,1.5 4,3 0,0Z"/>
    <path id="s" d="M0,0 C7,-6 13,-3 15,0 C13,3 7,6 0,0Z"/>
    <path id="m" d="M0,0 C10,-10 20,-5 22,0 C20,5 10,10 0,0Z"/>
    <path id="l" d="M0,0 C14,-18 24,-10 28,0 C24,10 14,18 0,0Z"/>
    <path id="xl" d="M0,0 C18,-24 32,-14 36,0 C32,14 18,24 0,0Z"/>
    <path id="xxl" d="M0,0 C24,-32 40,-18 46,0 C40,18 24,32 0,0Z"/>
  </defs>
  <g fill="#5C4A3A">
    <g transform="translate(50,45) rotate(25)" fill-opacity="0.10"><use href="#l"/></g>
    <g transform="translate(160,25) rotate(-35)" fill-opacity="0.08"><use href="#s"/></g>
    <g transform="translate(300,55) rotate(70)" fill-opacity="0.12"><use href="#xl"/></g>
    <g transform="translate(380,90) rotate(-55)" fill-opacity="0.09"><use href="#m"/></g>
    <g transform="translate(70,120) rotate(-20)" fill-opacity="0.10"><use href="#m"/></g>
    <g transform="translate(230,100) rotate(110)" fill-opacity="0.07"><use href="#xs"/></g>
    <g transform="translate(350,160) rotate(-65)" fill-opacity="0.11"><use href="#l"/></g>
    <g transform="translate(120,170) rotate(45)" fill-opacity="0.12"><use href="#xl"/></g>
    <g transform="translate(260,200) rotate(-30)" fill-opacity="0.10"><use href="#m"/></g>
    <g transform="translate(30,210) rotate(-85)" fill-opacity="0.07"><use href="#xs"/></g>
    <g transform="translate(180,250) rotate(15)" fill-opacity="0.11"><use href="#l"/></g>
    <g transform="translate(360,270) rotate(125)" fill-opacity="0.12"><use href="#xl"/></g>
    <g transform="translate(100,300) rotate(90)" fill-opacity="0.09"><use href="#m"/></g>
    <g transform="translate(290,310) rotate(-105)" fill-opacity="0.08"><use href="#s"/></g>
    <g transform="translate(50,360) rotate(160)" fill-opacity="0.11"><use href="#l"/></g>
    <g transform="translate(220,370) rotate(-75)" fill-opacity="0.12"><use href="#xl"/></g>
    <g transform="translate(380,330) rotate(35)" fill-opacity="0.10"><use href="#m"/></g>
    <g transform="translate(20,80) rotate(-15)" fill-opacity="0.12"><use href="#xxl"/></g>
    <g transform="translate(310,20) rotate(55)" fill-opacity="0.10"><use href="#xxl"/></g>
    <g transform="translate(200,330) rotate(-45)" fill-opacity="0.11"><use href="#xxl"/></g>
    <g transform="translate(380,220) rotate(80)" fill-opacity="0.09"><use href="#xxl"/></g>
  </g>
  <g fill="#6B8E4E">
    <g transform="translate(280,50) rotate(-10)" fill-opacity="0.09"><use href="#m"/></g>
    <g transform="translate(50,280) rotate(30)" fill-opacity="0.07"><use href="#s"/></g>
    <g transform="translate(340,120) rotate(-40)" fill-opacity="0.10"><use href="#l"/></g>
    <g transform="translate(150,80) rotate(60)" fill-opacity="0.07"><use href="#xs"/></g>
    <g transform="translate(20,170) rotate(-25)" fill-opacity="0.09"><use href="#s"/></g>
    <g transform="translate(300,180) rotate(75)" fill-opacity="0.07"><use href="#xs"/></g>
    <g transform="translate(180,30) rotate(-50)" fill-opacity="0.10"><use href="#m"/></g>
    <g transform="translate(260,270) rotate(25)" fill-opacity="0.09"><use href="#s"/></g>
    <g transform="translate(40,320) rotate(-70)" fill-opacity="0.07"><use href="#m"/></g>
    <g transform="translate(350,380) rotate(45)" fill-opacity="0.09"><use href="#s"/></g>
    <g transform="translate(130,350) rotate(-20)" fill-opacity="0.10"><use href="#xs"/></g>
    <g transform="translate(280,140) rotate(85)" fill-opacity="0.07"><use href="#xs"/></g>
  </g>
</svg>
