<svg xmlns="http://www.w3.org/2000/svg" width="400" height="400" viewBox="0 0 400 400">
  <g fill="#D4A853" fill-opacity="0.12">
    <g transform="translate(60,50) rotate(15)">
      <path d="M0,0 C-3,-8 -2,-18 0,-25 C2,-18 3,-8 0,0Z"/>
      <path d="M0,-25 C-4,-28 -2,-32 0,-34 C2,-32 4,-28 0,-25Z"/>
      <ellipse cx="-2" cy="-18" rx="3" ry="1.5" transform="rotate(-20)"/>
      <ellipse cx="2" cy="-14" rx="3" ry="1.5" transform="rotate(20)"/>
      <ellipse cx="-3" cy="-10" rx="3.5" ry="1.5" transform="rotate(-25)"/>
      <ellipse cx="3" cy="-6" rx="3.5" ry="1.5" transform="rotate(25)"/>
    </g>
    <g transform="translate(200,30) rotate(-10)">
      <path d="M0,0 C-3,-10 -2,-22 0,-30 C2,-22 3,-10 0,0Z"/>
      <path d="M0,-30 C-5,-34 -2,-38 0,-40 C2,-38 5,-34 0,-30Z"/>
      <ellipse cx="-2" cy="-22" rx="4" ry="1.5" transform="rotate(-20)"/>
      <ellipse cx="2" cy="-17" rx="4" ry="1.5" transform="rotate(20)"/>
      <ellipse cx="-3" cy="-12" rx="4" ry="1.5" transform="rotate(-25)"/>
      <ellipse cx="3" cy="-7" rx="4" ry="1.5" transform="rotate(25)"/>
    </g>
    <g transform="translate(340,60) rotate(25)">
      <path d="M0,0 C-3,-9 -2,-20 0,-27 C2,-20 3,-9 0,0Z"/>
      <path d="M0,-27 C-4,-30 -2,-35 0,-37 C2,-35 4,-30 0,-27Z"/>
      <ellipse cx="-2" cy="-20" rx="3.5" ry="1.5" transform="rotate(-20)"/>
      <ellipse cx="2" cy="-15" rx="3.5" ry="1.5" transform="rotate(20)"/>
      <ellipse cx="-3" cy="-10" rx="3.5" ry="1.5" transform="rotate(-25)"/>
      <ellipse cx="3" cy="-5" rx="3.5" ry="1.5" transform="rotate(25)"/>
    </g>
    <g transform="translate(100,140) rotate(-20)">
      <path d="M0,0 C-2,-7 -1,-15 0,-20 C1,-15 2,-7 0,0Z"/>
      <ellipse cx="-1" cy="-14" rx="3" ry="1.5" transform="rotate(-20)"/>
      <ellipse cx="2" cy="-10" rx="3" ry="1.5" transform="rotate(20)"/>
      <ellipse cx="-2" cy="-6" rx="3" ry="1.5" transform="rotate(-25)"/>
      <ellipse cx="2" cy="-3" rx="3" ry="1.5" transform="rotate(25)"/>
    </g>
    <g transform="translate(300,140) rotate(10)">
      <path d="M0,0 C-2,-7 -1,-15 0,-20 C1,-15 2,-7 0,0Z"/>
      <ellipse cx="-1" cy="-14" rx="3" ry="1.5" transform="rotate(-20)"/>
      <ellipse cx="2" cy="-10" rx="3" ry="1.5" transform="rotate(20)"/>
      <ellipse cx="-2" cy="-6" rx="3" ry="1.5" transform="rotate(-25)"/>
      <ellipse cx="2" cy="-3" rx="3" ry="1.5" transform="rotate(25)"/>
    </g>
    <g transform="translate(50,260) rotate(5)">
      <path d="M0,0 C-2,-6 -1,-13 0,-18 C1,-13 2,-6 0,0Z"/>
      <ellipse cx="-1" cy="-13" rx="2.5" ry="1" transform="rotate(-20)"/>
      <ellipse cx="2" cy="-9" rx="2.5" ry="1" transform="rotate(20)"/>
      <ellipse cx="-2" cy="-5" rx="2.5" ry="1" transform="rotate(-25)"/>
    </g>
    <g transform="translate(250,250) rotate(-30)">
      <path d="M0,0 C-2,-6 -1,-13 0,-18 C1,-13 2,-6 0,0Z"/>
      <ellipse cx="-1" cy="-13" rx="2.5" ry="1" transform="rotate(-20)"/>
      <ellipse cx="2" cy="-9" rx="2.5" ry="1" transform="rotate(20)"/>
      <ellipse cx="-2" cy="-5" rx="2.5" ry="1" transform="rotate(-25)"/>
    </g>
    <g transform="translate(170,320) rotate(20)">
      <path d="M0,0 C-2,-6 -1,-13 0,-18 C1,-13 2,-6 0,0Z"/>
      <ellipse cx="-1" cy="-13" rx="2.5" ry="1" transform="rotate(-20)"/>
      <ellipse cx="2" cy="-9" rx="2.5" ry="1" transform="rotate(20)"/>
      <ellipse cx="-2" cy="-5" rx="2.5" ry="1" transform="rotate(-25)"/>
    </g>
    <g transform="translate(350,280) rotate(-15)">
      <path d="M0,0 C-2,-6 -1,-13 0,-18 C1,-13 2,-6 0,0Z"/>
      <ellipse cx="-1" cy="-13" rx="2.5" ry="1" transform="rotate(-20)"/>
      <ellipse cx="2" cy="-9" rx="2.5" ry="1" transform="rotate(20)"/>
      <ellipse cx="-2" cy="-5" rx="2.5" ry="1" transform="rotate(-25)"/>
    </g>
    <g transform="translate(120,370) rotate(-40)">
      <path d="M0,0 C-2,-5 -1,-11 0,-15 C1,-11 2,-5 0,0Z"/>
      <ellipse cx="-1" cy="-11" rx="2" ry="1" transform="rotate(-20)"/>
      <ellipse cx="1.5" cy="-7" rx="2" ry="1" transform="rotate(20)"/>
    </g>
    <g transform="translate(300,360) rotate(35)">
      <path d="M0,0 C-2,-5 -1,-11 0,-15 C1,-11 2,-5 0,0Z"/>
      <ellipse cx="-1" cy="-11" rx="2" ry="1" transform="rotate(-20)"/>
      <ellipse cx="1.5" cy="-7" rx="2" ry="1" transform="rotate(20)"/>
    </g>
  </g>
</svg>
